<svg width="560px" height="101px" viewBox="0 0 560 101" version="1.1" xmlns="http://www.w3.org/2000/svg" xmlns:xlink="http://www.w3.org/1999/xlink">
    <g id="Page-1" stroke="none" stroke-width="1" fill="none" fill-rule="evenodd">
        <g id="LucidLink-logo">
            <path d="M39.2706913,28.2529179 C41.6890462,19.1812905 49.9374038,12.4899866 59.7696609,12.4899866 C69.6108665,12.4899866 77.8659356,19.1947134 80.277579,28.2797637 C82.038213,27.9956461 83.8279299,27.7965401 85.6713382,27.7965401 C88.2194476,27.7965401 90.6892569,28.1030291 93.0762918,28.637707 C90.6154311,12.4318208 76.662351,0 59.7696609,0 C42.8613107,0 28.899282,12.4541923 26.4563185,28.68245 C28.8948077,28.1209263 31.4205457,27.7965401 34.029058,27.7965401 C35.8187749,27.7965401 37.5570374,27.9844604 39.2706913,28.2529179" id="Fill-1" fill="#0057B7"></path>
            <path d="M58.4640624,43.459471 C51.965153,36.4549666 42.5243965,32.2178119 32.1104815,32.7055098 C14.9448596,33.5086452 0.826230648,47.6384599 0.0365180799,64.806319 C-0.851628916,84.1576326 14.5757305,100.126381 33.7324124,100.126381 C42.164216,100.126381 49.8555243,97.0100369 55.7705385,91.8936838 L46.9092029,83.0345853 C43.2917377,85.9048437 38.7257225,87.6319205 33.7480725,87.6363948 C22.4214018,87.6453434 12.8150965,78.3231556 12.4996589,67.0009593 C12.1663242,54.9941962 21.7994752,45.1574649 33.7324124,45.1574649 C39.8711413,45.1574649 45.3857064,47.777163 49.2626806,51.9404918 L76.1084336,78.7974306 C78.258331,80.947328 82.3388854,82.4081844 85.1934838,82.4081844 C88.1845482,82.4081844 92.2941855,81.3365914 94.5179087,79.5133173 L58.4640624,43.459471 Z" id="Fill-7" fill="#0057B7"></path>
            <path d="M87.0259302,32.6882838 C78.1131402,32.370609 69.963217,35.5361707 63.7640852,40.8986099 L72.6254208,49.7577084 C76.2406489,46.8896871 80.8066641,45.1603732 85.7843141,45.1558989 C97.1109848,45.1469503 106.71729,54.4669009 107.032728,65.7890972 C107.3683,77.7958603 97.7329114,87.6370659 85.8022113,87.6370659 C79.6634824,87.6370659 74.1489173,85.0151307 70.2719432,80.8518018 L43.4261901,53.9971002 C41.2762927,51.8449657 37.1957383,50.3841093 34.3389027,50.3841093 C31.3500756,50.3841093 27.2404382,51.4557023 25.016715,53.2789763 L61.0683242,89.3328227 C67.2294245,95.9726722 76.0303572,100.127053 85.8022113,100.127053 C104.965605,100.127053 120.392964,84.1493552 119.493631,64.7890929 C118.690496,47.4691079 104.352627,33.3057361 87.0259302,32.6882838" id="Logo-icon-part" fill="#FFD700"></path>
            <path d="M179.175543,67.307672 L179.175543,12.1664953 L169.238141,12.1664953 L169.238141,68.6208768 C169.466329,79.6947499 175.392529,82.0907333 184.902637,82.3703766 L213.256227,82.3703766 L213.256227,73.432978 L186.401525,73.432978 C181.470855,73.432978 179.175543,71.4866609 179.175543,67.307672 M253.082125,70.2701009 C250.878536,72.9390161 245.583212,75.831646 241.258808,75.831646 C232.32141,75.831646 229.735269,72.1940465 229.735269,59.6123369 L229.735269,32.6547266 L219.399654,32.6547266 L219.399654,60.211892 C219.399654,79.5788657 227.305728,83.4714999 240.057461,83.4714999 C245.67046,83.4714999 251.202923,81.1224965 254.06647,78.5654385 L254.560879,82.370824 L263.017291,82.370824 L263.017291,32.6547266 L253.082125,32.6547266 L253.082125,70.2701009 Z M294.778054,31.5562878 C283.07778,31.5562878 270.623588,40.6525238 270.525153,57.5138939 L270.520679,57.5138939 L270.520679,57.699577 L270.525153,57.699577 C270.616876,74.437904 283.075543,83.4692628 294.778054,83.4692628 C302.08681,83.4692628 307.91905,82.1538209 309.532032,81.7511346 L310.039865,81.6236172 L310.039865,73.6370057 L309.200935,73.856246 C306.491751,74.5587099 300.019687,75.5318684 296.57672,75.433434 C282.386502,75.433434 280.854057,62.9702932 280.854057,57.6145654 C280.854057,52.1961976 282.386502,39.5921166 296.594617,39.5921166 C299.997316,39.5003936 306.489514,40.4690778 309.200935,41.1715417 L310.039865,41.3885449 L310.039865,33.4019334 L309.532032,33.274416 C307.91905,32.8717297 302.084573,31.5562878 294.778054,31.5562878 M318.957576,82.3701529 L328.892742,82.3701529 L328.892742,32.6540554 L318.957576,32.6540554 L318.957576,82.3701529 Z M323.825606,12.1664953 C318.566076,12.1664953 317.957572,15.515503 317.957572,18.0345295 C317.957572,21.9271636 319.932972,23.9025636 323.825606,23.9025636 C327.71824,23.9025636 329.691403,21.9271636 329.691403,18.0345295 C329.691403,15.515503 329.085137,12.1664953 323.825606,12.1664953 M372.756018,70.462048 C370.599409,72.9810745 366.646372,75.8334357 362.330917,75.8334357 C354.972944,75.8334357 347.109375,70.967643 347.109375,57.3143404 C347.109375,46.7147423 354.111643,39.5939063 364.530032,39.5939063 C368.478595,39.5939063 371.46071,41.090557 372.756018,41.8131552 L372.756018,70.462048 Z M372.756018,33.6184891 C368.93721,31.8377208 363.617276,31.5558404 360.630686,31.5558404 C351.010958,31.5558404 336.77376,39.5827206 336.77376,56.8132197 C336.77376,82.1846935 357.064675,83.4710525 361.131807,83.4710525 C366.686641,83.4710525 371.436102,80.9251802 373.753785,78.6768484 L374.234772,82.3703766 L382.688947,82.3703766 L382.688947,12.1575467 L372.756018,12.1575467 L372.756018,33.6184891 Z M402.916327,67.307672 L402.916327,12.1664953 L392.978924,12.1664953 L392.978924,68.6208768 C393.207113,79.6947499 399.133313,82.0907333 408.643421,82.3703766 L436.99701,82.3703766 L436.99701,73.432978 L410.142309,73.432978 C405.211639,73.432978 402.916327,71.4866609 402.916327,67.307672 M448.776032,12.1664953 C443.516501,12.1664953 442.910235,15.515503 442.910235,18.0345295 C442.910235,21.9271636 444.883398,23.9025636 448.776032,23.9025636 C452.670903,23.9025636 454.644066,21.9271636 454.644066,18.0345295 C454.644066,15.515503 454.035562,12.1664953 448.776032,12.1664953 M443.90666,82.3701529 L453.844062,82.3701529 L453.844062,32.6540554 L443.90666,32.6540554 L443.90666,82.3701529 Z M488.155172,31.5562878 C482.859847,31.5562878 477.58242,33.5943279 474.92469,35.7576482 L474.434755,32.6569637 L465.197579,32.6569637 L465.197579,82.370824 L475.132745,82.370824 L475.132745,44.7554497 C477.336334,42.0887716 482.629421,39.1939046 486.956062,39.1939046 C495.895697,39.1939046 498.479601,42.8315041 498.479601,55.4154508 L498.479601,82.370824 L508.815216,82.370824 L508.815216,54.8136585 C508.815216,34.3191632 498.372218,31.5562878 488.155172,31.5562878 M559.371362,81.3482246 C553.944046,72.5428176 543.230353,60.741872 534.718012,54.1400539 L555.380293,32.65674 L542.923864,32.65674 L528.288454,48.0415936 L528.288454,12.1555333 L518.351051,12.1555333 L518.351051,82.3706003 L528.288454,82.3706003 L528.288454,60.9029465 C536.286251,66.6166176 542.854512,73.5517704 548.344469,82.0641113 L548.541338,82.3706003 L560,82.3706003 L559.371362,81.3482246 Z" id="Wordmark" fill="#35373A"></path>
        </g>
    </g>
</svg>